<?xml version="1.0" encoding="UTF-8"?>
<svg width="137px" height="137px" viewBox="0 0 137 137" version="1.1" xmlns="http://www.w3.org/2000/svg" xmlns:xlink="http://www.w3.org/1999/xlink">
    <!-- Generator: Sketch 51.3 (57544) - http://www.bohemiancoding.com/sketch -->
    <title>/logo/round/dark/logo</title>
    <desc>Created with Sketch.</desc>
    <defs>
        <path d="M113.06212,57.6283442 C114.128373,67.8925745 110.536783,78.322357 105.317754,88.4210352 C100.117431,98.5197135 93.2709622,108.305682 84.0488065,111.59833 C74.8266507,114.909372 63.1913954,111.745487 52.1921508,107.533106 C41.1929062,103.30233 30.8109662,98.0598465 26.4337158,89.7822414 C22.0377592,81.5046363 23.6464923,70.2286986 26.9387832,60.5163086 C30.2310741,50.7855239 35.2069228,42.6550762 42.2217471,36.272123 C49.2178653,29.870775 58.2342529,25.2353161 68.2981875,24.0212674 C78.3621222,22.7888239 89.4548978,24.9961853 97.872687,31.1400078 C106.27177,37.2838303 111.995867,47.3641138 113.06212,57.6283442 Z M39.7186324,67.0939651 C38.6333488,73.8928983 40.5815894,81.3776056 44.9334829,86.7873678 C49.2974316,92.2003602 56.0650332,95.5384076 62.7635831,96.4820023 C69.4589565,97.4374515 76.0700464,96.0070724 81.6841029,93.0897998 C87.3070382,90.1876118 91.9177084,85.8071547 95.7197522,80.1046382 C99.5186196,74.4139762 102.502508,67.4249637 101.098903,61.3313416 C99.7073539,55.2409497 93.9219589,50.069657 87.564038,45.4437655 C81.2029407,40.8297284 74.2509095,36.7815713 67.7359128,37.3228941 C61.2240925,37.8523625 55.1220197,42.976705 50.0268112,48.5868314 C44.9195473,54.1937276 40.8039159,60.295032 39.7186324,67.0939651 Z" id="path-1"></path>
    </defs>
    <g id="/logo/round/dark/logo" stroke="none" stroke-width="1" fill="none" fill-rule="evenodd">
        <g id="Group">
            <rect id="Rectangle-6" fill="#1E1926" fill-rule="nonzero" x="0" y="0" width="137" height="137" rx="36"></rect>
            <mask id="mask-2" fill="white">
                <use xlink:href="#path-1"></use>
            </mask>
            <use id="Combined-Shape" fill="#FDFDFD" fill-rule="nonzero" xlink:href="#path-1"></use>
        </g>
    </g>
</svg>